<svg width="128" height="30" viewBox="0 0 128 30" fill="none" xmlns="http://www.w3.org/2000/svg">
<path fill-rule="evenodd" clip-rule="evenodd" d="M75.7121 8.51577C75.1021 8.79182 74.7212 9.41096 74.7498 10.0799L74.7698 10.0899C74.775 10.5125 74.9493 10.9154 75.2537 11.2085C75.5581 11.5017 75.9673 11.6606 76.3898 11.6499C77.0593 11.6493 77.6613 11.2417 77.9105 10.6203C78.1596 9.9988 78.006 9.28827 77.5224 8.82525C77.0387 8.36224 76.3221 8.23973 75.7121 8.51577ZM39.7198 9.25991H36.5098V22.2599H39.7198V9.25991ZM45.9998 12.2199C42.9998 12.2199 40.9998 14.1499 40.9998 17.3699C40.9998 20.6599 42.9298 22.5399 45.9998 22.5399C49.0698 22.5399 50.9998 20.5899 50.9998 17.3699C50.9998 14.1499 48.9998 12.2199 45.9998 12.2199ZM47.8198 17.3699C47.8198 15.5999 47.1298 14.5599 46.0298 14.5599C44.9298 14.5599 44.2498 15.5599 44.2498 17.3699C44.2498 19.1799 44.9298 20.1699 46.0298 20.1699C47.1298 20.1699 47.8398 19.1799 47.8398 17.3799L47.8198 17.3699ZM55.3798 22.9299H52.2798L52.2998 22.9399C52.4798 24.7299 54.2598 25.9999 57.0398 26.0099C60.0998 26.0099 62.1798 24.5399 62.1798 22.1899V12.4499H58.9998V14.0627C58.4568 12.9757 57.3167 12.3043 56.0898 12.3699C53.5798 12.3699 52.0898 14.2899 52.0898 17.3699C52.0898 20.4499 53.6498 22.2399 55.9998 22.2399C57.2576 22.3321 58.443 21.6457 58.9898 20.5109V22.2899C58.9898 23.2699 58.3498 23.9299 57.1198 23.9299C56.3811 24.0246 55.6698 23.6158 55.3798 22.9299ZM58.9998 17.3699C58.9998 15.7999 58.2798 14.8099 57.1398 14.8099C55.9998 14.8099 55.2998 15.8099 55.2998 17.3699C55.2998 18.9299 55.9898 19.8499 57.1398 19.8499C58.2898 19.8499 58.9998 18.9999 58.9998 17.3699ZM68.4498 12.2199C65.4498 12.2199 63.4498 14.1499 63.4498 17.3699H63.4698C63.4698 20.6599 65.3898 22.5399 68.4498 22.5399C71.5098 22.5399 73.4498 20.5899 73.4498 17.3699C73.4498 14.1499 71.4498 12.2199 68.4498 12.2199ZM70.2698 17.3699C70.2698 15.5999 69.5698 14.5599 68.4798 14.5599C67.3898 14.5599 66.6998 15.5599 66.6998 17.3699C66.6998 19.1799 67.3798 20.1699 68.4798 20.1699C69.5798 20.1699 70.2898 19.1799 70.2898 17.3799L70.2698 17.3699ZM74.7498 12.4399H77.9998V22.2999H74.7998L74.7498 12.4399ZM85.7998 22.4399C88.2498 22.4399 89.6898 20.5799 89.6898 17.3699L89.7498 17.3799C89.7498 14.1599 88.2998 12.3099 85.7798 12.3299C84.4794 12.268 83.2797 13.0278 82.7798 14.2299H82.7198V12.4699H79.5298V25.4699H82.7398V20.6099H82.7998C83.3172 21.7885 84.515 22.5192 85.7998 22.4399ZM86.4198 17.3699C86.4198 15.8099 85.6898 14.7999 84.5598 14.7999C83.4298 14.7999 82.7198 15.7999 82.7098 17.3699C82.6998 18.9399 83.4298 19.9299 84.5598 19.9299C85.6898 19.9299 86.4798 18.9999 86.4798 17.3799L86.4198 17.3699ZM99.5498 15.5199C99.5298 13.4799 97.8598 12.2099 95.1698 12.2099L95.2298 12.2199C92.5198 12.2199 90.8398 13.4699 90.7798 15.4299C90.7798 16.9399 91.7898 17.9499 93.7198 18.3599L95.5798 18.7499C96.3498 18.9099 96.6498 18.9999 96.6498 19.5299C96.6498 20.0599 96.2098 20.3599 95.2698 20.3599C94.3298 20.3599 93.7498 19.9299 93.6598 19.1999H90.5498C90.6798 21.2099 92.4698 22.5299 95.2198 22.5299C97.9698 22.5299 99.8198 21.1699 99.8198 19.1699C99.8198 17.6799 99.0198 16.8799 97.0198 16.4599L94.9598 16.0399C94.2198 15.8899 93.8498 15.7299 93.8498 15.2199C93.8498 14.7099 94.2698 14.3699 95.1498 14.3699C96.0298 14.3699 96.6198 14.8099 96.6198 15.5199H99.5498ZM110.57 22.2899H107.46V20.4399H107.4C107.041 21.711 105.848 22.5629 104.53 22.4899C103.552 22.5217 102.607 22.1347 101.933 21.4261C101.259 20.7175 100.919 19.7547 101 18.7799V12.4499H104.21V18.0899C104.21 19.2499 104.82 19.8799 105.82 19.8799C106.294 19.8763 106.744 19.6673 107.053 19.3067C107.362 18.9462 107.499 18.4695 107.43 17.9999V12.4499H110.63L110.57 22.2899ZM115.24 12.4399H112.12L112.14 22.2999H115.35V16.4799C115.298 16.0706 115.425 15.6587 115.699 15.3502C115.973 15.0417 116.367 14.8666 116.78 14.8699C117.66 14.8699 118.15 15.3999 118.15 16.3999V22.2999H121.21V16.4599C121.154 16.0552 121.278 15.6465 121.549 15.3408C121.82 15.0352 122.211 14.8632 122.62 14.8699C123.53 14.8699 124 15.4299 124 16.4299V22.2999H127.23V15.6099C127.296 14.7239 126.981 13.8517 126.364 13.2121C125.748 12.5725 124.888 12.2261 124 12.2599C122.642 12.1963 121.411 13.054 121 14.3499H120.86C120.622 13.0508 119.435 12.1455 118.12 12.2599C116.819 12.2334 115.664 13.0882 115.31 14.3399H115.24V12.4399Z" fill="#696871"/>
<path fill-rule="evenodd" clip-rule="evenodd" d="M30.1595 10.1099C30.1597 6.03627 27.6597 2.38014 23.8636 0.902395C20.0675 -0.575349 15.7536 0.428268 12.9995 3.42987H0.519531V29.7699H26.8695V17.4599C28.9612 15.589 30.1576 12.9162 30.1595 10.1099ZM25.0895 10.1099C25.0936 12.0603 23.9218 13.8209 22.121 14.5701C20.3202 15.3193 18.2454 14.9094 16.8648 13.5317C15.4842 12.1539 15.07 10.08 15.8155 8.27765C16.5609 6.47532 18.3191 5.29988 20.2695 5.29987C22.9276 5.29987 25.084 7.45176 25.0895 10.1099ZM5.58953 24.6999H21.7995V19.8699C21.2938 19.9537 20.7822 19.9972 20.2695 19.9999C14.8097 19.9944 10.385 15.5697 10.3795 10.1099C10.3839 9.56993 10.4341 9.03133 10.5295 8.49987H5.58953V24.6999Z" fill="#696871"/>
</svg>
