<svg width="101" height="48" viewBox="0 0 101 48" fill="none" xmlns="http://www.w3.org/2000/svg">
<path d="M0.790039 28.79H3.79004V43.5H0.790039V28.79Z" fill="#696871"/>
<path fill-rule="evenodd" clip-rule="evenodd" d="M8.82005 33.5194C6.82495 34.3491 5.52647 36.2993 5.53051 38.46C5.51698 39.8795 6.07556 41.2446 7.08025 42.2474C8.08494 43.2502 9.45109 43.8062 10.8705 43.79C13.0313 43.79 14.979 42.4879 15.805 40.4912C16.6309 38.4946 16.1722 36.197 14.6429 34.6705C13.1136 33.1441 10.8151 32.6897 8.82005 33.5194ZM10.8315 36.2004C12.1048 36.1785 13.1576 37.187 13.1905 38.46C13.2243 39.0905 12.9928 39.7063 12.5521 40.1584C12.1114 40.6105 11.5016 40.8577 10.8705 40.84C9.59712 40.8396 8.56207 39.8129 8.55137 38.5395C8.54068 37.2662 9.55834 36.2222 10.8315 36.2004Z" fill="#696871"/>
<path fill-rule="evenodd" clip-rule="evenodd" d="M28.2698 43V33.42L25.3198 33.45V34.45C24.6014 33.5739 23.5116 33.0883 22.3798 33.14C19.5521 33.14 17.2598 35.4323 17.2598 38.26C17.2598 41.0877 19.5521 43.38 22.3798 43.38C23.5125 43.4366 24.6044 42.95 25.3198 42.07V43C25.3779 43.618 25.1457 44.228 24.6914 44.651C24.2371 45.074 23.6121 45.262 22.9998 45.16C22.0604 45.2377 21.1687 44.7344 20.7498 43.89L18.1698 45.38C19.1782 47.0215 21.0185 47.9629 22.9398 47.82C25.6198 47.82 28.2698 46.39 28.2698 43ZM23.8849 35.9357C24.7927 36.3451 25.3606 37.265 25.3198 38.26C25.3383 38.9038 25.0837 39.5254 24.6188 39.9712C24.154 40.4171 23.5222 40.6454 22.8798 40.6C21.884 40.5991 20.9886 39.9933 20.6175 39.0692C20.2465 38.1451 20.4742 37.0882 21.1929 36.3989C21.9117 35.7097 22.9771 35.5263 23.8849 35.9357Z" fill="#696871"/>
<path fill-rule="evenodd" clip-rule="evenodd" d="M33.2898 33.5194C31.2947 34.3491 29.9962 36.2993 30.0002 38.46C29.9867 39.8795 30.5453 41.2446 31.55 42.2474C32.5547 43.2502 33.9208 43.8062 35.3402 43.79C37.501 43.79 39.4488 42.4879 40.2747 40.4912C41.1006 38.4946 40.6419 36.197 39.1126 34.6705C37.5833 33.1441 35.2849 32.6897 33.2898 33.5194ZM35.3013 36.2004C36.5745 36.1785 37.6273 37.187 37.6602 38.46H37.6402C37.6737 39.0869 37.4449 39.6995 37.0086 40.1509C36.5723 40.6024 35.9679 40.852 35.3402 40.84C34.0668 40.8396 33.0318 39.8129 33.0211 38.5395C33.0104 37.2662 34.0281 36.2222 35.3013 36.2004Z" fill="#696871"/>
<path fill-rule="evenodd" clip-rule="evenodd" d="M43.8903 28.8999C42.8852 28.8999 42.0703 29.7147 42.0703 30.7199C42.0758 31.7228 42.8874 32.5344 43.8903 32.5399C44.8955 32.5399 45.7103 31.7251 45.7103 30.7199C45.7103 29.7147 44.8955 28.8999 43.8903 28.8999ZM45.3803 33.4199H42.3803V43.4999H45.3803V33.4199Z" fill="#696871"/>
<path fill-rule="evenodd" clip-rule="evenodd" d="M57.1644 42.1257C58.0674 41.1252 58.5339 39.8057 58.4604 38.4599C58.5311 37.1158 58.0634 35.7989 57.1607 34.8005C56.258 33.8022 54.9948 33.2046 53.6504 33.1399C52.5176 33.0855 51.419 33.536 50.6504 34.3699V33.4199H47.6504V47.5599H50.6504V42.5599C51.419 43.3939 52.5176 43.8443 53.6504 43.7899C54.9966 43.7253 56.2615 43.1263 57.1644 42.1257ZM53.0409 36.1208C54.3505 36.1097 55.4272 37.1506 55.4604 38.4599H55.4404C55.4879 39.1222 55.2469 39.7728 54.7793 40.2442C54.3116 40.7157 53.6631 40.962 53.0004 40.9199C51.6911 40.8867 50.6502 39.8101 50.6612 38.5004C50.6723 37.1908 51.7313 36.1318 53.0409 36.1208Z" fill="#696871"/>
<path d="M67.8005 40.48C67.8005 42.8 65.8005 43.79 63.6005 43.79C61.8025 43.9492 60.0884 42.9991 59.2705 41.39L61.8905 39.9C62.1097 40.6495 62.8216 41.1449 63.6005 41.09C64.3305 41.09 64.6905 40.86 64.6905 40.46C64.6905 39.35 59.6905 39.94 59.6905 36.46C59.6905 34.26 61.5505 33.15 63.6905 33.15C65.2986 33.1011 66.8068 33.928 67.6305 35.31L65.0005 36.69C64.7631 36.1504 64.23 35.8015 63.6405 35.8C63.1205 35.8 62.8005 36 62.8005 36.37C62.8405 37.52 67.8005 36.75 67.8005 40.48Z" fill="#696871"/>
<path d="M78.8404 33.4199V43.4999H75.8404V42.5599C75.1325 43.4071 74.0619 43.8643 72.9604 43.7899C70.9604 43.7899 69.1904 42.3399 69.1904 39.6099V33.4199H72.1904V39.1699C72.137 39.6662 72.3097 40.1601 72.6607 40.5149C73.0116 40.8698 73.5036 41.0479 74.0004 40.9999C75.1004 40.9999 75.8704 40.3599 75.8704 38.9299V33.4199H78.8404Z" fill="#696871"/>
<path d="M96.1799 37.32V43.5H93.1799V37.58C93.1799 36.58 92.6899 35.92 91.7299 35.92C90.7699 35.92 90.1499 36.63 90.1499 37.82V43.5H87.1499V37.58C87.1499 36.58 86.6699 35.92 85.6999 35.92C84.7299 35.92 84.1299 36.63 84.1299 37.82V43.5H81.1299V33.42H84.1299V34.35C84.7669 33.5155 85.7831 33.0601 86.8299 33.14C87.8824 33.0889 88.8845 33.5938 89.4699 34.47C90.1501 33.5545 91.2527 33.0523 92.3899 33.14C94.6699 33.14 96.1799 34.8 96.1799 37.32Z" fill="#696871"/>
<path d="M98.74 33.3599C99.9771 33.3599 100.98 32.357 100.98 31.1199C100.98 29.8828 99.9771 28.8799 98.74 28.8799C97.5029 28.8799 96.5 29.8828 96.5 31.1199C96.5 32.357 97.5029 33.3599 98.74 33.3599Z" fill="#696871"/>
<path d="M34.74 21.1599C40.5335 21.1599 45.23 16.4634 45.23 10.6699C45.23 4.87646 40.5335 0.179932 34.74 0.179932C28.9465 0.179932 24.25 4.87646 24.25 10.6699C24.25 16.4634 28.9465 21.1599 34.74 21.1599Z" fill="#696871"/>
<path d="M58.1902 21.1599C63.9837 21.1599 68.6802 16.4634 68.6802 10.6699C68.6802 4.87646 63.9837 0.179932 58.1902 0.179932C52.3967 0.179932 47.7002 4.87646 47.7002 10.6699C47.7002 16.4634 52.3967 21.1599 58.1902 21.1599Z" fill="#696871"/>
<rect x="0.80957" y="0.179932" width="20.97" height="20.97" fill="#696871"/>
</svg>
