<svg width="200" height="41" viewBox="0 0 200 41" fill="none" xmlns="http://www.w3.org/2000/svg">
<path d="M30.0282 18.1925C28.8998 19.3277 28.336 20.9066 28.4899 22.4998L28.4635 22.4734C28.6217 24.3482 27.9455 26.1974 26.615 27.5279C25.2846 28.8583 23.4354 29.5346 21.5605 29.3763L21.587 29.4028C19.317 29.1915 17.1583 30.4262 16.1895 32.49C15.2208 34.5537 15.6501 37.0033 17.2628 38.6147C18.8756 40.226 21.3256 40.6531 23.3885 39.6825C25.4514 38.7118 26.6842 36.552 26.4708 34.2822L26.4988 34.3086C26.3405 32.4338 27.0168 30.5846 28.3472 29.2541C29.6776 27.9237 31.5269 27.2474 33.4017 27.4057L33.3738 27.3792C35.8686 27.6036 38.19 26.0824 38.9802 23.7055C39.7704 21.3285 38.8218 18.7202 36.6892 17.4063C34.5566 16.0923 31.8004 16.4178 30.0326 18.1925H30.0282Z" fill="#5454D4"/>
<path d="M19.1796 25.9353L19.1516 25.9088C20.7458 26.0695 22.3279 25.5057 23.4613 24.3732C24.5947 23.2407 25.1596 21.659 25.0002 20.0647L25.0281 20.0912C24.8698 18.2164 25.5461 16.3671 26.8765 15.0367C28.207 13.7063 30.0562 13.03 31.9311 13.1883L31.9031 13.1618C34.1733 13.375 36.3334 12.1416 37.3036 10.0781C38.2738 8.01466 37.8458 5.56436 36.2334 3.95204C34.6211 2.33971 32.1708 1.91168 30.1074 2.8819C28.0439 3.85212 26.8105 6.01219 27.0237 8.28237L26.9972 8.25443C27.156 10.1294 26.4799 11.979 25.1494 13.3095C23.8188 14.6401 21.9692 15.3162 20.0943 15.1574L20.1208 15.1853C18.5266 15.0247 16.9445 15.5884 15.8111 16.721C14.6777 17.8535 14.1128 19.4351 14.2722 21.0294L14.2458 21.003C14.4035 22.8777 13.727 24.7266 12.3968 26.0569C11.0665 27.3872 9.21751 28.0636 7.34281 27.9059L7.36929 27.9324C5.0991 27.7192 2.93903 28.9526 1.96881 31.016C0.998594 33.0795 1.42663 35.5298 3.03895 37.1421C4.65128 38.7544 7.10157 39.1825 9.16503 38.2123C11.2285 37.242 12.4619 35.082 12.2487 32.8118L12.2766 32.8383C12.1184 30.9634 12.7946 29.1142 14.1251 27.7837C15.4555 26.4533 17.3047 25.7771 19.1796 25.9353Z" fill="#FF7143"/>
<path d="M9.32353 22.9838C10.452 21.8487 11.0155 20.2695 10.8603 18.6764L10.8882 18.7029C10.7298 16.8275 11.4065 14.9777 12.7376 13.6472C14.0687 12.3166 15.9188 11.6408 17.7941 11.7999L17.7662 11.7735C20.0356 11.9861 22.1946 10.7528 23.1642 8.68997C24.1339 6.62717 23.7058 4.17784 22.0941 2.56611C20.4824 0.954378 18.0331 0.526374 15.9703 1.496C13.9074 2.46563 12.6742 4.62466 12.8868 6.89405L12.8603 6.86758C13.0186 8.74241 12.3423 10.5917 11.0119 11.9221C9.68144 13.2525 7.83218 13.9288 5.95735 13.7705L5.98382 13.797C3.48912 13.5733 1.16818 15.0949 0.378454 17.4718C-0.411274 19.8488 0.537647 22.4567 2.67022 23.7704C4.8028 25.0841 7.55886 24.7583 9.32647 22.9838H9.32353Z" fill="#5454D4"/>
<path d="M54.8779 8.31616H59.2456V29.5706H54.8779V8.31616Z" fill="#19191B"/>
<path fill-rule="evenodd" clip-rule="evenodd" d="M66.4608 15.1419C63.5785 16.3459 61.7065 19.169 61.719 22.2927C61.7038 24.3409 62.5129 26.3092 63.9642 27.7547C65.4154 29.2001 67.387 30.0013 69.4351 29.978C72.5588 29.978 75.3744 28.0946 76.5669 25.2075C77.7593 22.3204 77.0935 18.9991 74.8803 16.7947C72.6671 14.5904 69.3431 13.9378 66.4608 15.1419ZM69.3731 19.0359C71.2109 19.002 72.7328 20.4553 72.7837 22.2927C72.8333 23.2036 72.4997 24.0937 71.8636 24.7476C71.2276 25.4016 70.347 25.7597 69.4351 25.7353C67.597 25.7354 66.1021 24.2544 66.0851 22.4164C66.0681 20.5783 67.5353 19.0698 69.3731 19.0359Z" fill="#19191B"/>
<path fill-rule="evenodd" clip-rule="evenodd" d="M94.5589 28.8367V15.0132L90.3074 15.0102V16.4955C89.2703 15.2265 87.693 14.5243 86.0559 14.6029C82.0626 14.7288 78.8906 18.0024 78.8906 21.9977C78.8906 25.993 82.0626 29.2666 86.0559 29.3926C87.693 29.4711 89.2703 28.769 90.3074 27.4999V28.8308C90.3805 29.7089 90.0506 30.5726 89.4108 31.1784C88.771 31.7842 87.8905 32.0665 87.0177 31.9455C85.6371 32.0864 84.3141 31.3555 83.6986 30.1117L79.9721 32.2661C81.43 34.6415 84.0928 36.0035 86.8721 35.7955C90.7442 35.7955 94.5589 33.7279 94.5589 28.8367ZM88.2335 18.6355C89.5473 19.228 90.3689 20.5599 90.3089 21.9999C90.3361 22.9298 89.9688 23.8278 89.2979 24.4721C88.6269 25.1164 87.7148 25.4471 86.7868 25.3823C85.3455 25.384 84.048 24.5092 83.5091 23.1725C82.9702 21.8357 83.2983 20.3056 84.3379 19.3072C85.3774 18.3089 86.9196 18.043 88.2335 18.6355Z" fill="#19191B"/>
<path fill-rule="evenodd" clip-rule="evenodd" d="M101.774 15.1419C98.892 16.3459 97.0199 19.169 97.0324 22.2927C97.0173 24.3409 97.8264 26.3092 99.2777 27.7547C100.729 29.2001 102.7 30.0013 104.749 29.978C107.872 29.978 110.688 28.0946 111.88 25.2075C113.073 22.3204 112.407 18.9991 110.194 16.7947C107.981 14.5904 104.657 13.9378 101.774 15.1419ZM104.687 19.0359C106.524 19.002 108.046 20.4553 108.097 22.2927C108.147 23.2036 107.813 24.0937 107.177 24.7476C106.541 25.4016 105.661 25.7597 104.749 25.7353C102.91 25.7354 101.416 24.2544 101.399 22.4164C101.382 20.5783 102.849 19.0698 104.687 19.0359Z" fill="#19191B"/>
<path fill-rule="evenodd" clip-rule="evenodd" d="M116.119 8.69052C115.14 9.09614 114.501 10.0517 114.501 11.1116C114.516 12.553 115.681 13.7179 117.122 13.7322C118.182 13.7322 119.138 13.0937 119.543 12.1145C119.949 11.1352 119.725 10.0081 118.975 9.2586C118.226 8.50911 117.098 8.28491 116.119 8.69052ZM119.312 15.0131H114.943L114.937 29.5719H119.312V15.0131Z" fill="#19191B"/>
<path fill-rule="evenodd" clip-rule="evenodd" d="M136.289 27.5822C137.595 26.1397 138.273 24.2359 138.171 22.2925C138.273 20.3489 137.597 18.4445 136.29 17.0015C134.984 15.5586 133.156 14.6963 131.212 14.6058C129.573 14.5164 127.981 15.1681 126.875 16.3808V15.0131H122.507V35.394H126.875V28.2014C127.98 29.415 129.573 30.0673 131.212 29.9778C133.156 29.887 134.983 29.0247 136.289 27.5822ZM130.281 18.9151C132.183 18.8833 133.755 20.3909 133.803 22.2925C133.869 23.2376 133.528 24.1659 132.867 24.8441C132.205 25.5224 131.286 25.8861 130.34 25.844C128.437 25.8442 126.891 24.3107 126.875 22.4085C126.859 20.5063 128.379 18.9469 130.281 18.9151Z" fill="#19191B"/>
<path d="M151.649 25.2028C151.649 28.5513 148.738 29.9778 145.594 29.9778C142.995 30.2132 140.515 28.8406 139.334 26.5131L143.118 24.3587C143.433 25.4422 144.463 26.1581 145.588 26.0763C146.635 26.0763 147.16 25.7557 147.16 25.1749C147.16 23.5719 139.997 24.4175 139.997 19.3807C139.997 16.2057 142.677 14.6057 145.705 14.6057C148.023 14.5324 150.198 15.7257 151.381 17.7204L147.655 19.7293C147.321 18.9497 146.553 18.4453 145.705 18.4484C144.947 18.4484 144.481 18.7425 144.481 19.2631C144.487 20.9234 151.649 19.816 151.649 25.2028Z" fill="#19191B"/>
<path d="M167.603 15.0132V29.572H163.236V28.2029C162.214 29.4284 160.666 30.0891 159.074 29.9794C156.133 29.9794 153.633 27.8838 153.633 23.9499V15.0132H158V23.3102C157.927 24.0121 158.165 24.7109 158.653 25.2208C159.141 25.7307 159.828 26.0001 160.533 25.9573C162.134 25.9573 163.24 25.0264 163.24 22.9588V15.0176L167.603 15.0132Z" fill="#19191B"/>
<path d="M192.647 20.6323V29.5705H188.28V21.0102C188.28 19.5543 187.581 18.6235 186.184 18.6235C184.728 18.6235 183.912 19.6426 183.912 21.3602V29.5705H179.546V21.0102C179.546 19.5543 178.847 18.6235 177.449 18.6235C175.993 18.6235 175.178 19.6426 175.178 21.3602V29.5705H170.811V15.0117H175.178V16.3499C176.098 15.1436 177.567 14.4863 179.08 14.6043C180.6 14.53 182.048 15.2591 182.893 16.5249C183.877 15.2017 185.471 14.4764 187.115 14.6043C190.458 14.6058 192.647 16.9926 192.647 20.6323Z" fill="#19191B"/>
<path d="M196.341 14.9235C198.131 14.9235 199.582 13.4724 199.582 11.6823C199.582 9.89229 198.131 8.44116 196.341 8.44116C194.551 8.44116 193.1 9.89229 193.1 11.6823C193.1 13.4724 194.551 14.9235 196.341 14.9235Z" fill="#19191B"/>
</svg>
